<?xml version="1.0" encoding="utf-8"?>
<!-- Generator: Adobe Illustrator 26.2.1, SVG Export Plug-In . SVG Version: 6.00 Build 0)  -->
<svg version="1.1" id="Laag_1" xmlns="http://www.w3.org/2000/svg" x="0px" y="0px"
     viewBox="0 0 1430 314" enable-background="new 0 0 1430 314;" xml:space="preserve">
<style type="text/css">
	.st0{fill:#FF7F00;}
	.st1{fill:#5493FD;}
</style>
<g>
	<g>
		<path class="st0" d="M1009.81,309.63c-7.66,0-13.83-2.8-18.35-8.33c-4.51-5.53-6.12-12.14-4.8-19.64
			c1.31-7.36,5.03-13.68,11.05-18.78c6.01-5.08,12.79-7.66,20.13-7.66c7.61,0,13.78,2.76,18.32,8.2l0.03,0.03
			c4.47,5.46,6.05,12.1,4.7,19.74c-1.27,7.2-4.94,13.48-10.91,18.64C1023.87,307.02,1017.1,309.63,1009.81,309.63z"/>
	</g>
	<g>
		<path class="st0" d="M1311.06,301.88h-33.89l20.43-115.75c2-11.57,1.73-22.87-0.79-33.56c-2.45-10.39-6.75-19.5-12.77-27.08
			c-6.12-7.72-13.65-13.64-23.03-18.11c-9.4-4.48-19.86-6.75-31.09-6.75c-11.47,0-22.83,2.31-33.74,6.86
			c-11.11,4.64-21.33,10.94-30.37,18.72c-9.1,7.85-16.91,17.22-23.19,27.84c-6.33,10.72-10.43,21.81-12.51,33.9l-20.11,113.94
			h-33.89l20.42-115.75c2.78-16.37,8.62-32.05,17.37-46.56c8.44-14.22,19.04-26.95,31.5-37.78c12.18-10.59,26.12-19.16,41.45-25.45
			c15.19-6.28,31.07-9.47,47.19-9.47c16.19,0,31.11,3.23,44.33,9.59c13.44,6.47,24.28,14.97,33.12,26
			c8.87,11.06,15.15,24.04,18.66,38.59l0,0c3.49,14.5,3.84,30.27,1.04,46.87L1311.06,301.88z"/>
	</g>
	<g>
		<path class="st0" d="M1410.84,309.63h-4.41c-8.42,0-16.41-1.66-23.77-4.93c-7.41-3.43-13.5-8.12-18.17-13.99
			c-4.73-5.78-8.16-12.82-10.17-20.88c-2.11-7.74-2.38-16.2-0.8-25.05l42.59-241.1H1430l-42.91,242.94
			c-1.43,8.38,0.11,15.24,4.71,20.93l0.01,0c4.51,5.6,10.64,8.33,18.74,8.33h6.28L1410.84,309.63z"/>
	</g>
</g>
<g>
	<g>
		<path class="st1" d="M335.49,301.88H301.6l25.49-144.77c1.33-8,1.12-15.28-0.64-22.22c-1.81-6.74-4.97-12.75-9.38-17.81
			c-4.42-5.07-10.03-9.14-16.65-12.07c-13.7-5.84-31.14-5.83-47.67,0.14c-8.03,3.01-15.22,7.13-21.92,12.56
			c-6.5,5.28-11.96,11.53-16.2,18.59c-4.49,7.26-7.31,14.62-8.63,22.58l-25.18,143h-33.89l25.49-144.77
			c1.34-7.97,1.13-15.26-0.64-22.22c-1.73-6.84-4.69-12.88-8.79-17.95c-4.15-5.14-9.16-9.06-15.31-11.98
			c-6.29-2.86-13.36-4.33-20.95-4.33c-7.86,0-15.46,1.47-23.24,4.48c-7.59,3.01-14.52,7.22-20.56,12.48
			c-6.21,5.32-11.44,11.58-15.59,18.66c-4.25,7.23-6.96,14.63-8.3,22.63l-25.18,143H0l25.49-144.77
			c2.15-12.16,6.61-23.95,13.23-35.05C45.27,111.1,53.4,101.42,62.9,93.3c9.13-7.9,19.73-14.38,31.5-19.24
			c11.7-4.76,23.92-7.17,36.33-7.17c16.49,0,31.18,4.29,43.66,12.76c10.09,6.94,17.99,15.72,23.58,26.19
			c9.52-10.63,20.86-19.51,33.8-26.47c15.54-8.28,32.27-12.48,49.74-12.48c12.67,0,24.61,2.43,35.48,7.22
			c11.06,5.01,19.87,11.47,27,19.77c7.06,8.23,12.22,18.16,15.33,29.49l0,0c3.08,11.16,3.53,23.14,1.32,35.58L335.49,301.88z"/>
	</g>
	<g>
		<path class="st1" d="M479.94,309.63c-15.93,0-30.83-3.22-44.29-9.58c-13.36-6.42-24.52-15.31-33.2-26.43
			c-8.66-10.81-14.9-23.88-18.48-38.78c-3.6-14.91-3.9-30.83-0.91-47.29c2.9-16.7,8.61-32.08,17.44-46.98
			c8.57-14.66,19.22-27.59,31.65-38.41c12.55-10.91,26.5-19.55,41.44-25.7c15.39-6.36,31.27-9.58,47.2-9.58
			c16.01,0,30.93,3.26,44.34,9.7c13.06,6.3,24.19,15.12,33.11,26.25c8.82,11.28,15.04,24.45,18.54,39.2l0,0
			c3.55,14.99,3.85,30.48,0.92,47.36c-3.05,16.78-8.92,32.54-17.46,46.9c-8.87,14.71-19.51,27.5-31.65,38.06
			c-12.59,10.96-26.53,19.64-41.44,25.8C511.28,306.54,495.86,309.63,479.94,309.63z M516.68,100.63c-11.61,0-23.12,2.35-34.23,6.98
			c-10.86,4.53-20.99,10.87-30.1,18.83c-8.8,7.78-16.53,17.32-22.96,28.32c-6.41,10.78-10.7,22.34-12.77,34.39
			c-2.14,11.97-1.95,23.38,0.54,33.94c2.49,10.54,6.68,19.54,12.82,27.51c5.98,7.9,13.6,14.13,22.67,18.56
			c9.14,4.46,19.71,6.72,31.4,6.72c11.42,0,22.73-2.3,33.62-6.85c10.85-4.52,21.09-10.98,30.46-19.18
			c9.12-8.09,16.94-17.59,23.22-28.23c6.3-10.66,10.6-22.19,12.76-34.27c2.08-12.18,1.9-23.64-0.55-34.05
			c-2.47-10.55-6.84-19.82-13.01-27.55c-6.18-7.65-13.95-13.81-23.09-18.27C538.17,102.93,527.81,100.63,516.68,100.63z"/>
	</g>
	<polygon class="st1" points="809.04,75.55 701.99,250.11 666.38,75.55 632.1,75.55 676.83,301.89 709.28,301.89 848.77,75.55 	"/>
	<path class="st1" d="M1062.69,139.63c-3.82-14.54-10.31-27.32-19.34-38.01c-9.12-10.67-20.63-19.22-34.24-25.45
		c-13.82-6.16-29.1-9.28-45.4-9.28c-16.31,0-32.62,3.22-48.46,9.56c-15.35,6.11-29.7,14.75-42.68,25.68
		c-12.75,10.88-23.61,23.82-32.29,38.45c-8.82,14.88-14.74,30.7-17.57,46.98c-0.84,4.64-1.42,9.3-1.73,13.9l-0.16,2.78
		c-0.01,0.34-0.03,0.67-0.04,1.01l-0.05,1.26c-0.42,10.49,0.65,20.71,3.19,30.38c3.83,14.56,10.32,27.33,19.34,38.01
		c9.14,10.67,20.64,19.22,34.24,25.46c13.83,6.16,29.11,9.28,45.41,9.28c7.65,0,15.3-0.74,22.91-2.14l6.14-34.85
		c-8.31,2.18-16.53,3.26-24.94,3.26c-10.78,0-20.98-1.87-30.26-5.54c-8.96-3.7-16.75-8.88-23.1-15.35
		c-6.37-6.61-11.28-14.29-14.6-22.82c-2.97-7.62-4.52-15.95-4.62-24.53c0.07-2.58,0.22-4.71,0.4-6.39h205.9l1-3.98
		c0.5-2,0.99-3.99,1.37-5.73l0.07-0.39c0.21-1.49,0.52-3.16,0.84-4.85l0.1-0.56C1066.92,169.42,1066.44,153.89,1062.69,139.63z
		 M861.91,167.51c3.09-7.86,7.16-15.22,12.15-21.96c6.67-9.01,14.51-16.91,23.36-23.49c8.93-6.73,18.82-12.05,29.35-15.79
		c11.04-3.8,21.78-5.65,32.84-5.65c10.78,0,20.99,1.87,30.26,5.54c8.97,3.7,16.75,8.88,23.11,15.35
		c6.36,6.61,11.28,14.29,14.6,22.82c2.81,7.22,4.35,14.99,4.61,23.18H861.91z"/>
</g>
</svg>
